<svg width="160" height="193" viewBox="0 0 160 193" fill="none" xmlns="http://www.w3.org/2000/svg">
<path d="M59.6064 0.594138C33.4643 0.594138 12.0754 14.8535 4.9457 38.619C-4.56052 71.8908 0.192588 121.798 14.4519 155.07C28.7112 185.965 57.2299 197.848 85.7485 190.718C119.02 181.212 147.539 150.317 157.045 114.669C166.551 74.2673 152.292 33.8659 126.15 14.8535C109.514 2.97069 83.372 -1.78242 59.6064 0.594138Z" fill="#E8E6DD"/>
<path d="M73.8658 109.321C83.3816 109.321 91.0958 101.607 91.0958 92.0913C91.0958 82.5755 83.3816 74.8613 73.8658 74.8613C64.3499 74.8613 56.6357 82.5755 56.6357 92.0913C56.6357 101.607 64.3499 109.321 73.8658 109.321Z" fill="#1A1A18"/>
</svg>
